# xmcd
#
# Track frame offsets: 
#        150
#        15247
#        33015
#        44376
#        57379
#        68333
#        84205
#        99562
#        115276
#        134470
#        153016
#        174910
#        190587
#
# Disc length: 2668 seconds
#
# Revision: 0
# Processed by: cddbd v1.5.2PL0 Copyright (c) Steve Scherf et al.
# Submitted via: ExactAudioCopy v1.0b1
#
DISCID=8d0a6a0d
DTITLE=Mathijs Leeuwis - Wachten op de klap
DYEAR=2010
DGENRE=Blues
TTITLE0=Immigranten
TTITLE1=Stap voor stap
TTITLE2=Botox-blues
TTITLE3=Ik moet nog
TTITLE4='t gaat al weken goed
TTITLE5=Sluizen
TTITLE6=Ik wacht wel
TTITLE7=Ohh zo moe
TTITLE8=Hetgeen ik vrees
TTITLE9=De wekker
TTITLE10=Kwart voor negen
TTITLE11=Slangehoeren
TTITLE12=Laat me niet alleen
EXTD=
EXTT0=
EXTT1=
EXTT2=
EXTT3=
EXTT4=
EXTT5=
EXTT6=
EXTT7=
EXTT8=
EXTT9=
EXTT10=
EXTT11=
EXTT12=
PLAYORDER=
